<?xml version="1.0" encoding="UTF-8" standalone="yes"?>
<svg viewBox="0 0 512 512" version="1.2" baseProfile="tiny-ps" xmlns="http://www.w3.org/2000/svg">
  <title>bimi-svg-tiny-12-ps</title>
  <circle cx="256" cy="256" r="256" fill="#FFFFFF"/>
  <path d="M127.4,250c2.75-68.48,59.31-123.34,128.45-123.34.01,0,.02,0,.04,0s.02,0,.04,0c69.14,0,125.69,54.86,128.45,123.34h114c-2.79-131.35-110.5-237.35-242.52-237.35S16.13,118.65,13.33,250h114.06Z" fill="#289aff"/>
  <path d="M255.88,136.36c-63.77.02-115.96,50.52-118.71,113.64h237.42c-2.75-63.11-54.94-113.62-118.71-113.64Z" fill="#f3d350"/>
  <path d="M132.99,260c-.26.04-.52.08-.79.08-.01,0-.02,0-.04,0-.01,0-.02,0-.04,0-.27,0-.53-.04-.79-.08H13.4c1.96,83.09,46.58,160.11,117.62,203.02l116.8-203.02h-114.84Z" fill="#4cc94c"/>
  <path d="M379.6,260.08s-.02,0-.04,0c-.27,0-.53-.04-.79-.08h-114.96l116.86,203.11c67.56-40.75,111.25-112.31,117.14-190.64.29-4.13.48-8.28.56-12.47h-117.95c-.26.04-.52.08-.79.08-.01,0-.02,0-.04,0Z" fill="#4cc94c"/>
  <path d="M239.59,497.25c.68.04,1.35.09,2.03.13.87.05,1.75.1,2.62.14,1.55.07,3.1.13,4.66.18.54.02,1.07.03,1.61.04,1.74.04,3.47.07,5.22.07.05,0,.1,0,.15,0,1.88,0,3.76-.03,5.63-.07.35,0,.7-.02,1.05-.02,1.79-.05,3.58-.12,5.37-.2.4-.02.8-.04,1.19-.07,1.47-.08,2.93-.17,4.39-.28.46-.03.92-.06,1.38-.1,1.54-.12,3.08-.26,4.62-.41.79-.08,1.57-.16,2.35-.24.95-.1,1.89-.21,2.83-.32,1.44-.17,2.89-.36,4.33-.56.56-.08,1.12-.15,1.67-.23,3.49-.51,6.97-1.09,10.44-1.74.12-.02.25-.05.37-.07,6.01-1.15,11.98-2.53,17.88-4.13.19-.05.38-.1.57-.16,3.28-.9,6.54-1.87,9.78-2.9.7-.22,1.39-.45,2.08-.68.81-.27,1.63-.53,2.44-.81,1.4-.48,2.8-.97,4.19-1.48.52-.19,1.05-.38,1.57-.58,3.41-1.27,6.79-2.6,10.13-4.01.03-.01.05-.02.08-.03,7.55-3.2,14.9-6.78,22.03-10.7l-116.43-202.37-116.4,202.31c30.78,16.93,65.04,26.93,100.16,29.3Z" fill="#e6a27a"/>
</svg>