<svg xmlns="http://www.w3.org/2000/svg" viewBox="0 0 512 512" version="1.2" baseProfile="tiny-ps">
  <title>GoWise Learning</title>
  <rect width="512" height="512" fill="#fff"/>
  <g>
    <g>
      <path d="M255.85,7.8C119.19,7.8,8.42,118.58,8.42,255.23s110.78,247.43,247.43,247.43,247.43-110.78,247.43-247.43S392.5,7.8,255.85,7.8ZM255.85,378.94c-68.33,0-123.71-55.39-123.71-123.72s55.39-123.71,123.71-123.71,123.72,55.39,123.72,123.71-55.39,123.72-123.72,123.72Z" fill="#289aff"/>
      <circle cx="255.5" cy="255.5" r="123.5" fill="#f3d350"/>
      <path d="M132.78,469.54l123.04-213.86,123.09,213.95c74.12-42.69,124.12-122.79,124.44-214.63H8.49c.32,91.78,50.25,171.83,124.29,214.54Z" fill="#4cc94c"/>
      <path d="M255.92,502.66c44.77,0,86.76-11.93,122.99-32.8l-123.09-213.95-123.04,213.86c36.26,20.92,78.31,32.89,123.14,32.89Z" fill="#e6a27a"/>
    </g>
    <g>
      <path d="M255.85,507.51C116.74,507.51,3.57,394.33,3.57,255.23S116.74,2.95,255.85,2.95s252.28,113.17,252.28,252.28-113.17,252.28-252.28,252.28ZM255.85,12.65C122.09,12.65,13.27,121.47,13.27,255.23s108.82,242.58,242.58,242.58,242.58-108.82,242.58-242.58S389.61,12.65,255.85,12.65ZM379.56,260.08c-2.68,0-4.85-2.17-4.85-4.85,0-65.54-53.33-118.87-118.87-118.87s-118.86,53.32-118.86,118.87c0,2.68-2.17,4.85-4.85,4.85s-4.85-2.17-4.85-4.85c0-70.89,57.67-128.57,128.56-128.57s128.56,57.67,128.56,128.57c0,2.68-2.17,4.85-4.85,4.85Z" fill="#fff"/>
      <path d="M379.63,260.08c-2.68,0-4.85-2.17-4.85-4.85,0-65.54-53.33-118.87-118.87-118.87s-118.87,53.32-118.87,118.87c0,2.68-2.17,4.85-4.85,4.85s-4.85-2.17-4.85-4.85c0-70.89,57.67-128.57,128.57-128.57s128.56,57.67,128.56,128.57c0,2.68-2.17,4.85-4.85,4.85Z" fill="#fff"/>
      <path d="M378.91,474.32c-.42,0-.85-.05-1.26-.16-1.24-.33-2.3-1.15-2.94-2.27l-118.89-206.63-118.84,206.55c-.64,1.12-1.7,1.93-2.95,2.27-1.24.33-2.56.16-3.68-.48C52.5,428.68,3.95,344.87,3.64,254.87c0-1.29.51-2.53,1.41-3.44.91-.91,2.15-1.43,3.44-1.43h494.86c1.29,0,2.52.51,3.44,1.43.91.91,1.42,2.15,1.41,3.44-.3,90.07-48.92,173.92-126.86,218.81-.74.43-1.58.64-2.42.64ZM263.82,260l116.86,203.11c71.13-42.9,115.81-119.96,117.76-203.11h-234.61ZM13.4,260c1.96,83.09,46.58,160.11,117.62,203.02l116.8-203.02H13.4Z" fill="#fff"/>
      <path d="M255.92,507.51c-44.11,0-87.53-11.6-125.56-33.53-2.32-1.33-3.12-4.3-1.78-6.62l123.04-213.87c1.74-3.01,6.67-3.01,8.41,0l123.09,213.95c1.33,2.32.54,5.28-1.78,6.62-37.99,21.88-81.36,33.45-125.42,33.45ZM139.42,467.95c35.53,19.55,75.7,29.86,116.5,29.86s80.85-10.29,116.35-29.78l-116.44-202.39-116.4,202.31Z" fill="#fff"/>
    </g>
  </g>
</svg>

