<?xml version="1.0" encoding="UTF-8"?>
<svg id="Layer_1" xmlns="http://www.w3.org/2000/svg" version="1.1" viewBox="0 0 482 482">
  <!-- Generator: Adobe Illustrator 29.8.1, SVG Export Plug-In . SVG Version: 2.1.1 Build 2)  -->
  <defs>
    <style>
      .st0 {
        fill: #fff;
        opacity: .03;
      }
    </style>
  </defs>
  <path class="st0" d="M479.89,245.87c.08-2.43.13-4.86.14-7.3,0-.32-.03-.63-.1-.94C478.65,106.38,371.51,0,239.97,0S-.03,107.67-.03,240s98.92,231.01,223.67,239.43c.63.04,1.26.08,1.89.12,1.01.06,2.02.12,3.03.17,1.47.07,2.94.12,4.41.17.58.02,1.16.03,1.74.04,1.71.04,3.42.06,5.13.07.04,0,.09,0,.13,0,0,0,.02,0,.03,0,.01,0,.03,0,.04,0,1.83,0,3.66-.03,5.49-.07.39,0,.78-.02,1.17-.03,1.79-.05,3.57-.11,5.35-.2.34-.02.67-.04,1.01-.06,1.43-.08,2.85-.17,4.28-.27.59-.04,1.19-.08,1.78-.13,1.53-.12,3.06-.26,4.59-.41.82-.08,1.63-.17,2.45-.26.81-.09,1.61-.18,2.42-.28,3.38-.4,6.74-.88,10.08-1.42.28-.05.56-.09.84-.14,7.56-1.26,15.01-2.87,22.32-4.82.06-.02.12-.03.18-.05,2.2-.59,4.38-1.21,6.55-1.86.37-.11.75-.22,1.12-.34.99-.3,1.98-.61,2.96-.92.77-.24,1.54-.5,2.31-.75,1.09-.36,2.18-.73,3.27-1.1,1.11-.38,2.23-.78,3.33-1.18.51-.19,1.02-.37,1.53-.56,12.52-4.62,24.66-10.29,36.27-16.98.08-.04.14-.1.21-.15,70.32-40.58,118.25-115.79,120.33-202.16ZM319.8,456.68c-.32.12-.64.24-.96.35-1.47.54-2.95,1.06-4.43,1.56-.57.19-1.14.38-1.71.57-.89.3-1.78.58-2.67.87-1.13.36-2.27.71-3.41,1.06-.79.24-1.58.48-2.37.71-1.01.29-2.02.57-3.03.85-.35.1-.7.19-1.05.29-2.1.57-4.21,1.11-6.32,1.61-.01,0-.03,0-.04,0-3.38.81-6.78,1.54-10.19,2.2-.21.04-.43.08-.64.12-3.24.61-6.51,1.16-9.78,1.63-.58.08-1.16.16-1.73.24-1.31.18-2.62.35-3.93.51-.95.11-1.89.22-2.84.33-.73.08-1.45.15-2.18.22-1.47.14-2.95.28-4.43.39-.43.03-.86.06-1.29.09-1.4.1-2.81.19-4.21.27-.37.02-.74.04-1.11.06-1.7.08-3.41.15-5.12.2-.33,0-.67.02-1,.02-1.78.04-3.56.07-5.36.07-.05,0-.1,0-.14,0-1.66,0-3.31-.03-4.96-.06-.52-.01-1.03-.02-1.55-.04-1.48-.04-2.95-.1-4.42-.17-.85-.04-1.7-.09-2.55-.14-.62-.04-1.23-.08-1.85-.12-33.47-2.26-66.12-11.79-95.45-27.94l110.86-192.69,110.89,192.74c-9.93,5.46-20.3,10.21-31.04,14.18ZM11.68,274.81c-.2-1.35-.39-2.7-.57-4.05-1.08-8.17-1.73-16.43-1.92-24.76h222.43l-110.43,191.94c-57.57-34.67-98.86-93.73-109.46-162.77-.02-.12-.03-.24-.05-.36ZM248.27,246h222.54c-2.09,81.43-46.55,152.5-112.09,191.97l-110.44-191.97ZM352.99,234H127.01c3.13-59.62,52.61-107.17,112.99-107.19,60.38.02,109.86,47.56,112.99,107.19ZM239.97,9.09c125.32,0,227.64,100.35,230.84,224.91h-108.65c-3.14-64.65-56.71-116.28-122.12-116.28-.01,0-.02,0-.04,0s-.02,0-.04,0c-65.41,0-118.98,51.63-122.12,116.28H9.13C12.32,109.44,114.65,9.09,239.97,9.09Z"/>
</svg>