<?xml version="1.0" encoding="UTF-8" standalone="no"?><!DOCTYPE svg PUBLIC "-//W3C//DTD SVG 1.1//EN" "http://www.w3.org/Graphics/SVG/1.1/DTD/svg11.dtd"><svg width="100%" height="100%" viewBox="0 0 242 80" version="1.1" xmlns="http://www.w3.org/2000/svg" xmlns:xlink="http://www.w3.org/1999/xlink" xml:space="preserve" xmlns:serif="http://www.serif.com/" style="fill-rule:evenodd;clip-rule:evenodd;stroke-linejoin:round;stroke-miterlimit:2;"><g id="Footer"><g><path d="M91.078,27.917c0,-2.563 0.319,-4.722 0.961,-6.476c0.64,-1.754 1.557,-3.158 2.747,-4.211c1.188,-1.053 2.631,-1.807 4.324,-2.265c1.693,-0.458 3.577,-0.687 5.652,-0.687c1.191,0 2.328,0.061 3.411,0.182c1.082,0.123 2.112,0.29 3.089,0.505l0,5.949c-0.946,-0.243 -1.823,-0.419 -2.631,-0.526c-0.809,-0.106 -1.748,-0.161 -2.815,-0.161c-1.008,0 -1.939,0.069 -2.794,0.206c-0.853,0.137 -1.593,0.451 -2.22,0.938c-0.624,0.488 -1.104,1.183 -1.44,2.083c-0.337,0.901 -0.505,2.128 -0.505,3.685l0,5.538c0,1.556 0.168,2.784 0.505,3.684c0.335,0.9 0.792,1.594 1.372,2.083c0.58,0.488 1.237,0.8 1.968,0.938c0.732,0.137 1.494,0.206 2.289,0.206l0.434,0c0.137,0 0.374,-0.016 0.709,-0.047l0,-6.591l-3.02,0l0,-5.63l9.473,0l0,17.484c-0.946,0.182 -2.075,0.351 -3.387,0.503c-1.311,0.153 -2.776,0.229 -4.393,0.229c-2.076,0 -3.958,-0.229 -5.652,-0.687c-1.694,-0.456 -3.136,-1.212 -4.325,-2.265c-1.19,-1.053 -2.114,-2.455 -2.77,-4.211c-0.656,-1.754 -0.983,-3.913 -0.983,-6.476l0,-3.982Z" style="fill:#b5b2b5;"/><path d="M129.387,19.77c-0.824,0 -1.488,0.176 -1.991,0.526c-0.503,0.351 -0.892,0.871 -1.167,1.557c-0.274,0.685 -0.466,1.548 -0.571,2.586c-0.108,1.037 -0.161,2.257 -0.161,3.661l0,3.569c0,1.404 0.053,2.625 0.161,3.661c0.105,1.038 0.297,1.901 0.571,2.586c0.276,0.687 0.656,1.206 1.145,1.557c0.488,0.35 1.129,0.526 1.922,0.526c0.824,0 1.488,-0.176 1.993,-0.526c0.501,-0.351 0.89,-0.871 1.166,-1.557c0.274,-0.685 0.459,-1.548 0.55,-2.586c0.092,-1.037 0.137,-2.257 0.137,-3.661l0,-3.569c0,-2.807 -0.235,-4.898 -0.709,-6.271c-0.472,-1.372 -1.486,-2.059 -3.044,-2.059m-0.045,26.043c-1.77,0 -3.373,-0.251 -4.806,-0.754c-1.435,-0.505 -2.663,-1.312 -3.685,-2.426c-1.022,-1.114 -1.807,-2.563 -2.357,-4.35c-0.55,-1.785 -0.824,-3.958 -0.824,-6.521l0,-3.708c0,-2.563 0.282,-4.737 0.848,-6.521c0.563,-1.786 1.357,-3.234 2.378,-4.348c1.022,-1.114 2.251,-1.923 3.687,-2.426c1.432,-0.503 3.02,-0.754 4.759,-0.754c1.769,0 3.371,0.251 4.806,0.754c1.433,0.503 2.655,1.312 3.661,2.426c1.008,1.114 1.785,2.562 2.334,4.348c0.55,1.785 0.824,3.958 0.824,6.521l0,3.708c0,2.563 -0.268,4.737 -0.801,6.521c-0.535,1.786 -1.304,3.236 -2.312,4.35c-1.006,1.114 -2.228,1.922 -3.661,2.426c-1.435,0.503 -3.052,0.754 -4.851,0.754" style="fill:#b5b2b5;"/><path d="M145.119,14.644l7.506,0l2.289,19.132l3.524,-18.95l6.042,0l3.523,19.087l2.199,-19.269l7.323,0l-5.631,30.528l-7.231,0l-3.203,-17.666l-3.526,17.666l-7.368,0l-5.448,-30.528Z" style="fill:#b5b2b5;"/><rect x="182.433" y="14.644" width="7.69" height="30.528" style="fill:#b5b2b5;"/><path d="M208.439,36.431c0,-0.427 -0.068,-0.785 -0.205,-1.075c-0.139,-0.29 -0.366,-0.564 -0.687,-0.824c-0.321,-0.26 -0.75,-0.511 -1.283,-0.756c-0.534,-0.243 -1.196,-0.534 -1.989,-0.869l-2.563,-1.1c-0.763,-0.305 -1.472,-0.679 -2.128,-1.12c-0.656,-0.442 -1.237,-1 -1.74,-1.672c-0.503,-0.671 -0.901,-1.486 -1.191,-2.447c-0.289,-0.961 -0.434,-2.128 -0.434,-3.502c0,-1.465 0.26,-2.747 0.779,-3.845c0.519,-1.098 1.259,-2.014 2.218,-2.746c0.962,-0.734 2.114,-1.282 3.457,-1.648c1.343,-0.366 2.839,-0.55 4.485,-0.55c1.375,0 2.67,0.061 3.89,0.184c1.22,0.121 2.381,0.274 3.479,0.456l0,5.951c-1.069,-0.184 -2.104,-0.335 -3.112,-0.458c-1.008,-0.121 -2.151,-0.182 -3.432,-0.182c-1.343,0 -2.426,0.176 -3.25,0.526c-0.825,0.351 -1.235,1.03 -1.235,2.038c0,0.519 0.113,0.961 0.342,1.327c0.229,0.366 0.556,0.687 0.985,0.961c0.426,0.274 0.922,0.542 1.488,0.801c0.563,0.26 1.196,0.542 1.898,0.846l2.747,1.237c1.648,0.732 2.936,1.717 3.868,2.952c0.93,1.235 1.396,2.907 1.396,5.012c0,6.407 -4.029,9.61 -12.083,9.61c-1.711,0 -3.174,-0.076 -4.395,-0.229c-1.22,-0.152 -2.41,-0.335 -3.569,-0.548l0,-5.996c0.548,0.09 1.082,0.19 1.603,0.297c0.518,0.108 1.051,0.19 1.601,0.253c0.55,0.061 1.137,0.113 1.762,0.16c0.624,0.045 1.335,0.068 2.128,0.068c1.831,0 3.15,-0.243 3.96,-0.732c0.808,-0.487 1.212,-1.282 1.212,-2.38" style="fill:#b5b2b5;"/><path d="M222.41,14.644l17.758,0l0,5.859l-10.436,0l0,6.178l9.475,0l0,5.859l-9.475,0l0,6.774l10.802,0l0,5.859l-18.124,0l0,-30.528Z" style="fill:#b5b2b5;"/><path d="M92.632,51.703l3.418,0l0,10.882l4.537,0l0,2.686l-7.954,0l0,-13.568Z" style="fill:#b5b2b5;"/><path d="M111.869,51.703l7.893,0l0,2.604l-4.638,0l0,2.746l4.211,0l0,2.605l-4.211,0l0,3.01l4.799,0l0,2.604l-8.054,0l0,-13.568Z" style="fill:#b5b2b5;"/><path d="M136.804,59.779l-0.996,-4.558l-1.017,4.558l2.014,0Zm-2.665,-8.075l3.579,0l3.56,13.568l-3.232,0l-0.653,-2.991l-3.173,0l-0.672,2.991l-3.11,0l3.702,-13.568Z" style="fill:#b5b2b5;"/><path d="M156.897,57.826c0.326,0 0.582,-0.129 0.772,-0.387c0.192,-0.256 0.285,-0.711 0.285,-1.362c0,-0.692 -0.098,-1.167 -0.293,-1.424c-0.197,-0.258 -0.472,-0.387 -0.825,-0.387l-1.303,0l0,3.56l1.364,0Zm-4.577,-6.123l4.924,0c2.739,0 4.109,1.349 4.109,4.048c0,0.732 -0.113,1.367 -0.337,1.902c-0.224,0.535 -0.592,0.966 -1.109,1.291c0.393,0.258 0.672,0.603 0.835,1.037c0.161,0.435 0.243,0.916 0.243,1.445l0,3.845l-3.213,0l0,-3.621c0,-0.366 -0.058,-0.692 -0.173,-0.975c-0.116,-0.285 -0.385,-0.429 -0.804,-0.429l-1.262,0l0,5.025l-3.213,0l0,-13.568Z" style="fill:#b5b2b5;"/><path d="M172.902,51.703l2.705,0l3.764,7.363l0,-7.363l3.152,0l0,13.568l-2.705,0l-3.763,-7.1l0,7.1l-3.153,0l0,-13.568Z" style="fill:#b5b2b5;"/><rect x="194.5" y="51.703" width="3.418" height="13.568" style="fill:#b5b2b5;"/><path d="M209.892,51.703l2.705,0l3.764,7.363l0,-7.363l3.152,0l0,13.568l-2.705,0l-3.763,-7.1l0,7.1l-3.153,0l0,-13.568Z" style="fill:#b5b2b5;"/><path d="M231.227,57.602c0,-1.14 0.142,-2.099 0.427,-2.879c0.284,-0.779 0.692,-1.403 1.219,-1.87c0.53,-0.469 1.17,-0.804 1.923,-1.008c0.754,-0.203 1.59,-0.305 2.512,-0.305c0.53,0 1.035,0.027 1.517,0.081c0.48,0.055 0.938,0.129 1.372,0.224l0,2.644c-0.419,-0.108 -0.809,-0.185 -1.169,-0.234c-0.36,-0.047 -0.777,-0.071 -1.253,-0.071c-0.447,0 -0.861,0.031 -1.24,0.092c-0.379,0.061 -0.708,0.2 -0.985,0.416c-0.279,0.218 -0.493,0.526 -0.642,0.927c-0.15,0.4 -0.224,0.945 -0.224,1.636l0,2.462c0,0.692 0.074,1.238 0.224,1.638c0.148,0.4 0.351,0.709 0.609,0.925c0.258,0.218 0.55,0.356 0.875,0.418c0.324,0.061 0.664,0.09 1.017,0.09l0.193,0c0.06,0 0.166,-0.006 0.314,-0.019l0,-2.929l-1.343,0l0,-2.502l4.213,0l0,7.771c-0.421,0.082 -0.924,0.156 -1.506,0.224c-0.584,0.068 -1.235,0.102 -1.954,0.102c-0.922,0 -1.76,-0.102 -2.512,-0.306c-0.753,-0.203 -1.395,-0.538 -1.923,-1.006c-0.529,-0.468 -0.938,-1.091 -1.23,-1.872c-0.292,-0.78 -0.437,-1.74 -0.437,-2.878l0,-1.77Z" style="fill:#b5b2b5;"/><path d="M40.494,0.176c21.992,0 39.822,17.828 39.822,39.822c0,21.994 -17.83,39.822 -39.822,39.822c-21.994,0 -39.823,-17.828 -39.823,-39.822c-0,-21.994 17.83,-39.822 39.823,-39.822Zm0,1.507c-21.161,0 -38.316,17.153 -38.316,38.314c0,21.161 17.155,38.314 38.316,38.314c21.16,0 38.314,-17.153 38.314,-38.314c0,-21.161 -17.155,-38.314 -38.314,-38.314Zm-18.781,38.314c0,0.416 -0.338,0.754 -0.754,0.754c-0.416,0 -0.754,-0.338 -0.754,-0.754c0,-11.205 9.084,-20.288 20.288,-20.288c11.203,0 20.287,9.083 20.287,20.288c0,0.416 -0.338,0.754 -0.754,0.754c-0.416,0 -0.754,-0.338 -0.754,-0.754c0,-10.372 -8.409,-18.781 -18.779,-18.781c-10.372,0 -18.781,8.409 -18.781,18.781Z" style="fill:#b5b2b5;"/><path d="M21.725,39.997c0,0.416 -0.338,0.754 -0.754,0.754c-0.416,0 -0.754,-0.338 -0.754,-0.754c0,-11.205 9.084,-20.288 20.288,-20.288c11.203,0 20.287,9.083 20.287,20.288c0,0.416 -0.338,0.754 -0.754,0.754c-0.416,0 -0.754,-0.338 -0.754,-0.754c0,-10.372 -8.409,-18.781 -18.779,-18.781c-10.372,0 -18.781,8.409 -18.781,18.781Z" style="fill:#b5b2b5;"/><path d="M20.685,74.526c-11.914,-6.873 -19.951,-19.755 -20.002,-34.525c-0.001,-0.2 0.078,-0.393 0.22,-0.535c0.141,-0.142 0.334,-0.222 0.534,-0.222l78.136,0c0.2,0 0.392,0.08 0.534,0.222c0.141,0.142 0.221,0.334 0.22,0.535c-0.051,14.78 -8.096,27.669 -20.025,34.538c-0.173,0.1 -0.379,0.127 -0.572,0.075c-0.193,-0.052 -0.358,-0.179 -0.457,-0.352l-18.782,-32.646l-18.775,32.633c-0.1,0.173 -0.264,0.3 -0.458,0.352c-0.193,0.052 -0.399,0.025 -0.572,-0.075Zm18.563,-33.774l-37.048,-0c0.309,13.627 7.683,25.504 18.588,32.085l18.46,-32.085Zm2.484,0l18.466,32.098c10.92,-6.579 18.301,-18.462 18.61,-32.098l-37.077,-0Z" style="fill:#b5b2b5;"/><path d="M40.505,79.819c-7.216,0 -13.984,-1.926 -19.82,-5.294c-0.36,-0.208 -0.484,-0.668 -0.277,-1.029l19.428,-33.769c0.134,-0.234 0.384,-0.378 0.653,-0.378c0.27,0 0.519,0.144 0.653,0.378l19.435,33.782c0.207,0.361 0.083,0.821 -0.277,1.029c-5.831,3.359 -12.59,5.281 -19.797,5.281Zm0,-1.507c6.664,0 12.93,-1.707 18.388,-4.71l-18.402,-31.987l-18.396,31.974c5.463,3.01 11.737,4.722 18.41,4.722Z" style="fill:#b5b2b5;"/></g></g></svg>