<?xml version="1.0" encoding="UTF-8"?>
<svg id="Layer_2" data-name="Layer 2" xmlns="http://www.w3.org/2000/svg" viewBox="0 0 241.46 80">
  <defs>
    <style>
      .cls-1 {
        fill: #b5b2b5;
      }
    </style>
  </defs>
  <g id="Footer">
    <g>
      <g>
        <g>
          <path class="cls-1" d="M90.46,27.77c0-2.54.32-4.68.95-6.42.63-1.74,1.54-3.13,2.72-4.17,1.18-1.04,2.61-1.79,4.29-2.24,1.68-.45,3.54-.68,5.6-.68,1.18,0,2.31.06,3.38.18s2.09.29,3.06.5v6c-.92-.24-1.76-.41-2.55-.51-.78-.1-1.69-.15-2.72-.15-.97,0-1.88.07-2.7.2-.83.13-1.54.44-2.15.91-.6.47-1.07,1.14-1.39,2.01-.33.87-.49,2.06-.49,3.57v6.1c0,1.56.16,2.8.48,3.7.32.9.76,1.6,1.32,2.09.56.49,1.19.8,1.89.94s1.44.21,2.2.21h.42c.13,0,.36-.02.68-.05v-6.95h-3v-6h10v17.56c-.97.18-2.12.35-3.46.51s-2.84.23-4.49.23c-2.12,0-4.05-.23-5.78-.69-1.73-.46-3.21-1.22-4.42-2.28-1.22-1.06-2.16-2.47-2.83-4.23-.67-1.76-1.01-3.93-1.01-6.51v-3.82Z"/>
          <path class="cls-1" d="M128.98,45.57c-1.75,0-3.33-.25-4.74-.75-1.42-.5-2.63-1.29-3.64-2.4-1.01-1.1-1.78-2.53-2.33-4.29-.54-1.76-.81-3.91-.81-6.44v-3.66c0-2.53.28-4.68.84-6.44.56-1.76,1.34-3.19,2.35-4.29,1.01-1.1,2.22-1.9,3.64-2.39,1.41-.5,2.98-.75,4.7-.75s3.33.25,4.75.75c1.41.5,2.62,1.29,3.61,2.39.99,1.1,1.76,2.53,2.31,4.29s.81,3.91.81,6.44v3.66c0,2.53-.26,4.68-.79,6.44-.53,1.76-1.29,3.19-2.28,4.29-.99,1.1-2.2,1.9-3.61,2.4-1.42.5-3.01.75-4.79.75ZM129.53,19.26c-.86,0-1.56.18-2.08.55-.53.37-.93.91-1.22,1.63-.29.72-.49,1.62-.6,2.71-.11,1.09-.17,2.36-.17,3.83v3.74c0,1.47.06,2.75.17,3.83.11,1.09.31,1.99.6,2.71.29.72.69,1.26,1.2,1.63.51.37,1.18.55,2.01.55s1.56-.18,2.08-.55c.53-.37.93-.91,1.22-1.63.29-.72.48-1.62.58-2.71.1-1.08.14-2.36.14-3.83v-3.74c0-2.94-.25-5.13-.74-6.56-.49-1.44-1.56-2.16-3.19-2.16Z"/>
        </g>
        <g>
          <path class="cls-1" d="M144.91,14h7.72l2.3,19.75,3.54-18.75h6.07l3.54,18.89,2.21-19.89h7.53l-5.72,31h-7.34l-3.25-17.94-3.58,17.94h-7.48l-5.53-31Z"/>
          <path class="cls-1" d="M182.46,14h8v31h-8V14Z"/>
          <path class="cls-1" d="M208.49,36.26c0-.42-.07-.77-.2-1.05-.14-.28-.36-.55-.67-.81-.31-.25-.73-.5-1.26-.74s-1.17-.52-1.95-.85l-2.51-1.08c-.75-.3-1.44-.67-2.09-1.1s-1.21-.98-1.71-1.64c-.49-.66-.88-1.46-1.17-2.4-.28-.94-.43-2.09-.43-3.43,0-1.44.25-2.69.76-3.77.51-1.08,1.23-1.97,2.18-2.69.94-.72,2.07-1.26,3.39-1.62,1.32-.36,2.78-.54,4.4-.54,1.35,0,2.62.06,3.82.18s2.33.27,3.41.45v5.84c-1.05-.18-2.06-.33-3.05-.45-.99-.12-2.11-.18-3.37-.18s-2.38.17-3.19.52c-.81.34-1.21,1.01-1.21,2,0,.51.11.94.34,1.3.22.36.55.67.97.94.42.27.9.53,1.46.79.55.25,1.17.53,1.86.83l2.69,1.21c1.62.72,2.88,1.68,3.79,2.9.91,1.21,1.37,2.85,1.37,4.91,0,6.28-3.95,9.43-11.85,9.43-1.68,0-3.11-.07-4.31-.22-1.2-.15-2.36-.33-3.5-.54v-5.88c.54.09,1.06.19,1.57.29.51.1,1.03.19,1.57.25s1.11.11,1.73.16,1.31.07,2.09.07c1.8,0,3.09-.24,3.88-.72.79-.48,1.19-1.26,1.19-2.33Z"/>
          <path class="cls-1" d="M222.46,14h18v6h-11v7h10v5h-9v7h11v6h-19V14Z"/>
        </g>
        <g>
          <path class="cls-1" d="M92.46,52h3v11h5v3h-8v-14Z"/>
          <path class="cls-1" d="M111.46,52h8v3h-5v2h5v3h-5v3h5v3h-8v-14Z"/>
          <path class="cls-1" d="M134.01,52h3.69l3.67,14h-3.4l-.65-4h-3.19l-.68,4h-3.27l3.82-14ZM136.74,60l-1-4.58-1.02,4.58h2.02Z"/>
          <path class="cls-1" d="M152.46,52h5.11c2.85,0,4.27,1.39,4.27,4.18,0,.76-.12,1.41-.35,1.96-.23.55-.61,1-1.15,1.33.41.27.7.62.87,1.07.17.45.25.95.25,1.49v3.97h-4v-4.25c.34-.37.28-.69.17-.98s-.39-.43-.81-.77h-1.36v6h-3v-14ZM156.92,58c.33-.09.59-.22.78-.48.19-.26.29-.71.29-1.37,0-.7-.1-1.17-.3-1.43-.2-.26-.47-.39-.83-.72h-1.4v4h1.46Z"/>
          <path class="cls-1" d="M173.46,52h2.42l3.58,7.6v-7.6h3v14h-2.42l-3.58-7.33v7.33h-3v-14Z"/>
          <path class="cls-1" d="M194.46,52h3v14h-3v-14Z"/>
          <path class="cls-1" d="M210.46,52h2.42l3.58,7.6v-7.6h3v14h-2.42l-3.58-7.33v7.33h-3v-14Z"/>
          <path class="cls-1" d="M231.46,57.68c0-1.14.14-2.11.43-2.89.29-.78.69-1.41,1.22-1.88.53-.47,1.17-.81,1.93-1.01.76-.2,1.6-.31,2.52-.31.53,0,1.04.03,1.52.08.48.05.94.13,1.38.22v2.55c-.46-.12-.88-.2-1.27-.26s-.84-.08-1.36-.08c-.49,0-.94.03-1.35.1s-.77.22-1.07.45c-.3.24-.54.57-.7,1.01-.16.44-.25,1.03-.25,1.78v2.34s.67,1.24.82,1.65c.15.4.35.71.61.93.26.22.55.36.88.42.33.06.67.09,1.02.2h.19c.06-.1.47-.12.47-.12v-2.88h-1v-3h4v7.8c-.44.08-.96.16-1.57.23-.61.07-1.29.1-2.04.1-.96,0-1.84-.1-2.63-.31-.79-.2-1.46-.54-2.01-1.01s-.98-1.1-1.29-1.88c-.31-.78-.46-1.75-.46-2.89v-1.36Z"/>
        </g>
      </g>
      <g>
        <path class="cls-1" d="M40,80C17.94,80,0,62.06,0,40S17.94,0,40,0s40,17.94,40,40-17.94,40-40,40ZM40,1.51C18.78,1.51,1.51,18.78,1.51,40s17.26,38.49,38.49,38.49,38.49-17.26,38.49-38.49S61.22,1.51,40,1.51ZM59.62,40.76c-.42,0-.76-.34-.76-.76,0-10.4-8.46-18.86-18.86-18.86s-18.86,8.46-18.86,18.86c0,.42-.34.76-.76.76s-.76-.34-.76-.76c0-11.24,9.14-20.38,20.38-20.38s20.38,9.14,20.38,20.38c0,.42-.34.76-.76.76Z"/>
        <path class="cls-1" d="M59.63,40.76c-.42,0-.76-.34-.76-.76,0-10.4-8.46-18.86-18.86-18.86s-18.86,8.46-18.86,18.86c0,.42-.34.76-.76.76s-.76-.34-.76-.76c0-11.24,9.14-20.38,20.38-20.38s20.38,9.14,20.38,20.38c0,.42-.34.76-.76.76Z"/>
        <path class="cls-1" d="M59.52,74.55c-.07,0-.13,0-.2-.03-.19-.05-.36-.18-.46-.35l-18.87-32.79-18.86,32.78c-.1.17-.27.3-.46.35-.19.05-.4.03-.57-.07C7.76,67.31.06,54.03.01,39.76c0-.2.08-.4.22-.54.14-.14.34-.22.54-.22h78.48c.2,0,.39.08.54.22s.22.34.22.54c-.05,14.28-7.76,27.57-20.11,34.69-.12.07-.25.1-.38.1ZM41.24,41l18.55,32.24c11.29-6.81,18.39-19.04,18.69-32.24h-37.24ZM1.54,41c.31,13.19,7.39,25.42,18.67,32.23l18.54-32.23H1.54Z"/>
        <path class="cls-1" d="M40.01,80c-6.99,0-13.88-1.84-19.91-5.32-.36-.21-.49-.67-.28-1.03l19.51-33.92c.27-.47,1.04-.47,1.31,0l19.52,33.93c.21.36.08.83-.28,1.03-6.02,3.47-12.9,5.3-19.88,5.3ZM21.52,73.74c5.64,3.11,12.02,4.74,18.49,4.74s12.84-1.63,18.47-4.73l-18.49-32.13-18.48,32.12Z"/>
      </g>
    </g>
  </g>
</svg>