<?xml version="1.0" encoding="UTF-8"?>
<svg id="Layer_2" data-name="Layer 2" xmlns="http://www.w3.org/2000/svg" viewBox="0 0 20.4 20.39">
  <defs>
    <style>
      .cls-1 {
        fill: #b5b2b5;
      }
    </style>
  </defs>
  <g id="Footer">
    <path class="cls-1" d="M10.2,4.97c-2.89,0-5.24,2.33-5.25,5.22s2.33,5.24,5.22,5.25,5.24-2.33,5.25-5.22-2.33-5.24-5.22-5.25ZM10.17,6.81c1.87,0,3.4,1.51,3.41,3.38,0,1.87-1.51,3.4-3.38,3.41-1.87,0-3.4-1.51-3.41-3.38,0-1.87,1.51-3.4,3.38-3.41ZM14.42,4.75c0-.67.55-1.22,1.22-1.22s1.22.55,1.22,1.22-.55,1.22-1.22,1.22-1.22-.55-1.22-1.22ZM20.33,5.99c-.08-1.63-.45-3.08-1.65-4.27-1.19-1.19-2.64-1.57-4.27-1.65C12.72-.02,7.68-.02,5.99.07c-1.63.08-3.08.45-4.27,1.64C.52,2.91.15,4.35.07,5.99-.02,7.67-.02,12.72.07,14.4c.08,1.63.45,3.08,1.65,4.27,1.2,1.19,2.64,1.57,4.27,1.65,1.68.1,6.73.1,8.41,0,1.63-.08,3.08-.45,4.27-1.65,1.19-1.19,1.57-2.64,1.65-4.27.1-1.68.1-6.73,0-8.41ZM18.15,16.21c-.35.89-1.04,1.58-1.94,1.94-1.34.53-4.53.41-6.01.41s-4.67.12-6.01-.41c-.89-.35-1.58-1.04-1.94-1.94-.53-1.34-.41-4.53-.41-6.01s-.12-4.67.41-6.01c.35-.89,1.04-1.58,1.94-1.94,1.34-.53,4.53-.41,6.01-.41s4.67-.12,6.01.41c.89.35,1.58,1.04,1.94,1.94.53,1.34.41,4.53.41,6.01s.12,4.67-.41,6.01Z"/>
  </g>
</svg>