<?xml version="1.0" encoding="UTF-8"?>
<svg id="Layer_2" data-name="Layer 2" xmlns="http://www.w3.org/2000/svg" viewBox="0 0 24.85 17.47">
  <defs>
    <style>
      .cls-1 {
        fill: #b5b2b5;
      }
    </style>
  </defs>
  <g id="Footer">
    <path class="cls-1" d="M24.33,2.73c-.28-1.08-1.13-1.92-2.2-2.21-1.93-.52-9.71-.52-9.71-.52,0,0-7.77,0-9.71.52C1.65.81.81,1.66.52,2.73c-.52,1.95-.52,6.02-.52,6.02,0,0,0,4.07.52,6.02.29,1.07,1.13,1.89,2.2,2.18,1.94.52,9.71.52,9.71.52,0,0,7.77,0,9.71-.52,1.07-.29,1.91-1.1,2.2-2.18.52-1.95.52-6.02.52-6.02,0,0,0-4.07-.52-6.02h0ZM9.48,12.43v-7.39l6.49,3.69-6.49,3.69Z"/>
  </g>
</svg>