<?xml version="1.0" encoding="UTF-8"?>
<svg id="Layer_2" data-name="Layer 2" xmlns="http://www.w3.org/2000/svg" viewBox="0 0 20.51 20.21">
  <defs>
    <style>
      .cls-1 {
        fill: #b5b2b5;
      }
    </style>
  </defs>
  <g id="Footer">
    <path class="cls-1" d="M4.51,20.21H.51V6.21h4v14ZM2.45,4.92c-1.35,0-2.45-1.12-2.45-2.47,0-.65.26-1.27.72-1.73.46-.46,1.08-.72,1.73-.72s1.27.26,1.73.72c.46.46.72,1.08.72,1.73,0,1.35-1.1,2.47-2.45,2.47ZM20.51,20.21h-4v-6.63c0-1.58-.03-3.6-2.32-3.6s-2.68,1.72-2.68,3.49v6.74h-4V6.21h4v2h.06c.56-1.09,1.92-2.24,3.95-2.24,4.22,0,5,2.88,5,6.61v7.63h0Z"/>
  </g>
</svg>